<svg xmlns="http://www.w3.org/2000/svg" version="1.1" xmlns:xlink="http://www.w3.org/1999/xlink" xmlns:svgjs="http://svgjs.com/svgjs" width="1440" height="560" preserveAspectRatio="none" viewBox="0 0 1440 560"><g mask="url(&quot;#SvgjsMask1332&quot;)" fill="none"><path d="M 0,89 C 72,112.4 216,220.2 360,206 C 504,191.8 576,19.4 720,18 C 864,16.6 936,198.4 1080,199 C 1224,199.6 1368,56.6 1440,21L1440 560L0 560z" fill="rgba(215, 198, 144, 1)"></path><path d="M 0,356 C 72,372.4 216,430 360,438 C 504,446 576,382.6 720,396 C 864,409.4 936,502 1080,505 C 1224,508 1368,429.8 1440,411L1440 560L0 560z" fill="rgba(203, 178, 106, 1)"></path></g><defs><mask id="SvgjsMask1332"><rect width="1440" height="560" fill="#ffffff"></rect></mask></defs></svg>